<?xml version="1.0" standalone="no"?>
<!DOCTYPE svg PUBLIC "-//W3C//DTD SVG 20010904//EN"
 "http://www.w3.org/TR/2001/REC-SVG-20010904/DTD/svg10.dtd">
<svg version="1.0" xmlns="http://www.w3.org/2000/svg"
 width="1000.000000pt" height="1000.000000pt" viewBox="0 0 1000.000000 1000.000000"
 preserveAspectRatio="xMidYMid meet">
<metadata>
Created by potrace 1.15, written by Peter Selinger 2001-2017
</metadata>
<g transform="translate(0.000000,1000.000000) scale(0.100000,-0.100000)"
fill="#000000" stroke="none">
<path d="M155 9968 c2 -18 25 -157 49 -308 98 -603 267 -1327 475 -2027 32
-110 36 -133 23 -133 -22 0 -230 93 -347 155 -55 29 -157 80 -227 113 l-128
61 0 -59 c0 -52 3 -59 22 -66 13 -4 142 -66 288 -138 334 -166 489 -236 517
-236 46 0 45 3 -97 495 -204 704 -361 1401 -454 2015 -27 174 -20 160 -77 160
l-50 0 6 -32z"/>
<path d="M9746 9973 c-3 -16 -13 -75 -22 -133 -93 -614 -250 -1311 -454 -2015
-142 -492 -143 -495 -97 -495 28 0 183 70 517 236 146 72 275 134 288 138 19
7 22 14 22 66 l0 59 -127 -61 c-71 -33 -173 -84 -228 -113 -117 -62 -325 -155
-347 -155 -13 0 -9 23 23 133 208 700 377 1424 475 2027 24 151 47 290 49 308
l6 32 -50 0 c-46 0 -50 -2 -55 -27z"/>
<path d="M0 4715 l0 -64 70 -56 c39 -31 132 -98 208 -149 215 -145 343 -220
972 -561 639 -348 899 -543 1003 -755 l32 -65 0 -175 -1 -175 -58 -220 c-48
-182 -59 -239 -63 -331 -9 -171 33 -336 122 -487 l34 -57 -63 -158 c-35 -86
-87 -213 -116 -282 -120 -292 -120 -345 0 -750 l51 -171 -16 -49 c-17 -52 -80
-156 -108 -179 -30 -24 -19 -31 47 -31 l64 0 29 48 c16 26 44 79 62 118 l33
71 -56 191 c-81 275 -96 339 -96 415 0 84 15 131 153 468 58 140 108 270 112
287 6 27 -3 52 -54 155 -83 167 -105 258 -98 402 4 77 15 144 37 225 73 272
82 320 87 470 3 86 1 169 -6 205 -34 186 -196 374 -495 574 -164 110 -282 178
-733 424 -467 255 -638 354 -812 472 -115 77 -285 208 -310 238 -24 30 -31 19
-31 -48z"/>
<path d="M9969 4763 c-25 -30 -195 -161 -310 -238 -174 -118 -345 -217 -812
-472 -451 -246 -569 -314 -733 -424 -299 -200 -461 -388 -495 -574 -7 -36 -9
-119 -6 -205 5 -150 14 -198 87 -470 22 -81 33 -148 37 -225 7 -144 -15 -235
-98 -402 -51 -103 -60 -128 -54 -155 4 -17 54 -147 112 -287 138 -337 153
-384 153 -468 0 -76 -15 -140 -96 -415 l-56 -191 33 -71 c18 -39 46 -92 62
-118 l29 -48 64 0 c66 0 77 7 47 31 -28 23 -91 127 -108 179 l-16 49 51 171
c120 405 120 458 0 750 -29 69 -81 196 -116 282 l-63 158 34 57 c89 151 131
316 122 487 -4 92 -15 149 -63 331 l-58 220 -1 175 0 175 32 65 c104 212 364
407 1003 755 629 341 757 416 972 561 76 51 169 118 208 149 l70 56 0 64 c0
67 -7 78 -31 48z"/>
</g>
</svg>
