<?xml version="1.0" standalone="no"?>
<!DOCTYPE svg PUBLIC "-//W3C//DTD SVG 20010904//EN"
 "http://www.w3.org/TR/2001/REC-SVG-20010904/DTD/svg10.dtd">
<svg version="1.0" xmlns="http://www.w3.org/2000/svg"
 width="1000.000000pt" height="1000.000000pt" viewBox="0 0 1000.000000 1000.000000"
 preserveAspectRatio="xMidYMid meet">
<metadata>
Created by potrace 1.15, written by Peter Selinger 2001-2017
</metadata>
<g transform="translate(0.000000,1000.000000) scale(0.100000,-0.100000)"
fill="#000000" stroke="none">
<path d="M2 8908 l3 -1091 358 -174 c197 -95 365 -173 373 -173 20 0 18 14
-15 126 -283 951 -405 1451 -506 2064 -25 151 -47 290 -50 308 l-6 32 -79 0
-80 0 2 -1092z"/>
<path d="M9826 9978 c-3 -13 -24 -138 -46 -278 -100 -618 -226 -1135 -511
-2094 -33 -112 -35 -126 -15 -126 8 0 176 78 373 173 l358 174 3 1086 2 1087
-80 0 c-74 0 -80 -1 -84 -22z"/>
<path d="M0 2375 l0 -2375 1070 0 1069 0 41 72 c23 40 55 92 71 116 l29 43
-72 272 c-68 257 -72 278 -72 382 0 99 3 120 33 210 18 55 41 116 51 135 73
145 91 185 116 263 29 88 29 88 10 120 -81 136 -107 219 -126 399 -19 180 6
316 87 470 l38 73 -1 220 c0 206 -2 226 -27 319 -27 100 -75 201 -129 269 -16
20 -26 37 -22 37 4 0 -5 14 -21 30 -16 17 -35 30 -42 30 -18 0 -92 37 -118 59
-11 10 -81 46 -155 80 -133 63 -411 206 -625 324 -412 226 -660 393 -1042 704
-84 67 -155 123 -158 123 -3 0 -5 -1069 -5 -2375z"/>
<path d="M9870 4654 c-285 -235 -550 -426 -794 -571 -240 -142 -689 -382 -906
-484 -74 -34 -144 -70 -155 -80 -26 -22 -100 -59 -118 -59 -7 0 -26 -13 -42
-30 -16 -16 -25 -30 -21 -30 4 0 -6 -17 -22 -37 -54 -68 -102 -169 -129 -269
-25 -93 -27 -113 -27 -319 l-1 -220 38 -73 c81 -154 106 -290 87 -470 -19
-180 -45 -263 -126 -399 -19 -32 -19 -32 10 -120 25 -78 43 -118 116 -263 10
-19 33 -80 51 -135 30 -90 33 -111 33 -210 0 -104 -4 -125 -72 -382 l-72 -272
29 -43 c16 -24 48 -76 71 -116 l41 -72 1069 0 1070 0 0 2375 c0 1306 -3 2375
-7 2374 -5 0 -60 -43 -123 -95z"/>
</g>
</svg>
